<svg width="22" height="22" viewBox="0 0 22 22" fill="none" xmlns="http://www.w3.org/2000/svg">
<path d="M3.66602 6.41659H18.3327" stroke="#4B465C" stroke-width="1.75" stroke-linecap="round" stroke-linejoin="round"/>
<path d="M3.66602 6.41659H18.3327" stroke="white" stroke-opacity="0.2" stroke-width="1.75" stroke-linecap="round" stroke-linejoin="round"/>
<path d="M9.16732 10.0833V15.5833" stroke="#4B465C" stroke-width="1.75" stroke-linecap="round" stroke-linejoin="round"/>
<path d="M9.16732 10.0833V15.5833" stroke="white" stroke-opacity="0.2" stroke-width="1.75" stroke-linecap="round" stroke-linejoin="round"/>
<path d="M12.8333 10.0833V15.5833" stroke="#4B465C" stroke-width="1.75" stroke-linecap="round" stroke-linejoin="round"/>
<path d="M12.8333 10.0833V15.5833" stroke="white" stroke-opacity="0.2" stroke-width="1.75" stroke-linecap="round" stroke-linejoin="round"/>
<path d="M4.58398 6.41675L5.50065 17.4167C5.50065 18.4293 6.32146 19.2501 7.33398 19.2501H14.6673C15.6798 19.2501 16.5006 18.4293 16.5006 17.4167L17.4173 6.41675" stroke="#4B465C" stroke-width="1.75" stroke-linecap="round" stroke-linejoin="round"/>
<path d="M4.58398 6.41675L5.50065 17.4167C5.50065 18.4293 6.32146 19.2501 7.33398 19.2501H14.6673C15.6798 19.2501 16.5006 18.4293 16.5006 17.4167L17.4173 6.41675" stroke="white" stroke-opacity="0.2" stroke-width="1.75" stroke-linecap="round" stroke-linejoin="round"/>
<path d="M8.25 6.41667V3.66667C8.25 3.16041 8.66041 2.75 9.16667 2.75H12.8333C13.3396 2.75 13.75 3.16041 13.75 3.66667V6.41667" stroke="#4B465C" stroke-width="1.75" stroke-linecap="round" stroke-linejoin="round"/>
<path d="M8.25 6.41667V3.66667C8.25 3.16041 8.66041 2.75 9.16667 2.75H12.8333C13.3396 2.75 13.75 3.16041 13.75 3.66667V6.41667" stroke="white" stroke-opacity="0.2" stroke-width="1.75" stroke-linecap="round" stroke-linejoin="round"/>
</svg>
