<svg width="22" height="22" viewBox="0 0 22 22" fill="none" xmlns="http://www.w3.org/2000/svg">
<circle cx="10.9993" cy="11.0001" r="1.83333" stroke="#4B465C" stroke-width="1.5" stroke-linecap="round" stroke-linejoin="round"/>
<circle cx="10.9993" cy="11.0001" r="1.83333" stroke="white" stroke-opacity="0.2" stroke-width="1.5" stroke-linecap="round" stroke-linejoin="round"/>
<path d="M20.1673 10.9999C17.7226 15.278 14.6673 17.4166 11.0007 17.4166C7.33398 17.4166 4.27873 15.278 1.83398 10.9999C4.27873 6.72184 7.33398 4.58325 11.0007 4.58325C14.6673 4.58325 17.7226 6.72184 20.1673 10.9999" stroke="#4B465C" stroke-width="1.75" stroke-linecap="round" stroke-linejoin="round"/>
<path d="M20.1673 10.9999C17.7226 15.278 14.6673 17.4166 11.0007 17.4166C7.33398 17.4166 4.27873 15.278 1.83398 10.9999C4.27873 6.72184 7.33398 4.58325 11.0007 4.58325C14.6673 4.58325 17.7226 6.72184 20.1673 10.9999" stroke="white" stroke-opacity="0.2" stroke-width="1.75" stroke-linecap="round" stroke-linejoin="round"/>
</svg>
