<svg width="41" height="40" viewBox="0 0 41 40" fill="none" xmlns="http://www.w3.org/2000/svg">
<rect x="0.783203" width="40" height="40" rx="6" fill="#7367F0" fill-opacity="1"/>
<rect x="14.7832" y="14" width="12" height="14" rx="2" stroke="#7367F0" stroke-width="1.75" stroke-linecap="round" stroke-linejoin="round"/>
<rect x="14.7832" y="14" width="12" height="14" rx="2" stroke="white" stroke-opacity="1" stroke-width="1.75" stroke-linecap="round" stroke-linejoin="round"/>
<path d="M17.7832 14V13C17.7832 11.8954 18.6786 11 19.7832 11H21.7832C22.8878 11 23.7832 11.8954 23.7832 13V14" stroke="#7367F0" stroke-width="1.75" stroke-linecap="round" stroke-linejoin="round"/>
<path d="M17.7832 14V13C17.7832 11.8954 18.6786 11 19.7832 11H21.7832C22.8878 11 23.7832 11.8954 23.7832 13V14" stroke="white" stroke-opacity="1" stroke-width="1.75" stroke-linecap="round" stroke-linejoin="round"/>
<path d="M14.7832 18H26.7832" stroke="#7367F0" stroke-width="1.75" stroke-linecap="round" stroke-linejoin="round"/>
<path d="M14.7832 18H26.7832" stroke="white" stroke-opacity="1" stroke-width="1.75" stroke-linecap="round" stroke-linejoin="round"/>
<path d="M14.7832 24H26.7832" stroke="#7367F0" stroke-width="1.75" stroke-linecap="round" stroke-linejoin="round"/>
<path d="M14.7832 24H26.7832" stroke="white" stroke-opacity="1" stroke-width="1.75" stroke-linecap="round" stroke-linejoin="round"/>
<path d="M17.7832 28V29" stroke="#7367F0" stroke-width="1.75" stroke-linecap="round" stroke-linejoin="round"/>
<path d="M17.7832 28V29" stroke="white" stroke-opacity="1" stroke-width="1.75" stroke-linecap="round" stroke-linejoin="round"/>
<path d="M23.7832 28V29" stroke="#7367F0" stroke-width="1.75" stroke-linecap="round" stroke-linejoin="round"/>
<path d="M23.7832 28V29" stroke="white" stroke-opacity="1" stroke-width="1.75" stroke-linecap="round" stroke-linejoin="round"/>
</svg>
