<svg width="41" height="40" viewBox="0 0 41 40" fill="none" xmlns="http://www.w3.org/2000/svg">
<rect x="0.565918" width="40" height="40" rx="6" fill="#4B465C" fill-opacity="0.08"/>
<circle cx="17.5659" cy="15" r="4" stroke="#4B465C" stroke-width="1.75" stroke-linecap="round" stroke-linejoin="round"/>
<circle cx="17.5659" cy="15" r="4" stroke="white" stroke-opacity="0.2" stroke-width="1.75" stroke-linecap="round" stroke-linejoin="round"/>
<path d="M11.5659 29V27C11.5659 24.7909 13.3568 23 15.5659 23H19.5659C21.7751 23 23.5659 24.7909 23.5659 27V29" stroke="#4B465C" stroke-width="1.5" stroke-linecap="round" stroke-linejoin="round"/>
<path d="M11.5659 29V27C11.5659 24.7909 13.3568 23 15.5659 23H19.5659C21.7751 23 23.5659 24.7909 23.5659 27V29" stroke="white" stroke-opacity="0.2" stroke-width="1.5" stroke-linecap="round" stroke-linejoin="round"/>
<path d="M24.5659 11.1299C26.3358 11.5831 27.5738 13.1779 27.5738 15.0049C27.5738 16.8319 26.3358 18.4267 24.5659 18.8799" stroke="#4B465C" stroke-width="1.5" stroke-linecap="round" stroke-linejoin="round"/>
<path d="M24.5659 11.1299C26.3358 11.5831 27.5738 13.1779 27.5738 15.0049C27.5738 16.8319 26.3358 18.4267 24.5659 18.8799" stroke="white" stroke-opacity="0.2" stroke-width="1.5" stroke-linecap="round" stroke-linejoin="round"/>
<path d="M29.5659 28.9999V26.9999C29.5555 25.1845 28.3237 23.6037 26.5659 23.1499" stroke="#4B465C" stroke-width="1.5" stroke-linecap="round" stroke-linejoin="round"/>
<path d="M29.5659 28.9999V26.9999C29.5555 25.1845 28.3237 23.6037 26.5659 23.1499" stroke="white" stroke-opacity="0.2" stroke-width="1.5" stroke-linecap="round" stroke-linejoin="round"/>
</svg>
