<svg width="41" height="40" viewBox="0 0 41 40" fill="none" xmlns="http://www.w3.org/2000/svg">
<rect x="0.349121" width="40" height="40" rx="6" fill="#4B465C" fill-opacity="0.08"/>
<circle cx="20.3491" cy="19" r="3" stroke="#4B465C" stroke-width="1.75" stroke-linecap="round" stroke-linejoin="round"/>
<circle cx="20.3491" cy="19" r="3" stroke="white" stroke-opacity="0.2" stroke-width="1.75" stroke-linecap="round" stroke-linejoin="round"/>
<path fill-rule="evenodd" clip-rule="evenodd" d="M26.0061 24.657L21.7631 28.9C20.9822 29.68 19.717 29.68 18.9361 28.9L14.6921 24.657C11.568 21.5327 11.5681 16.4675 14.6923 13.3433C17.8165 10.2192 22.8817 10.2192 26.0059 13.3433C29.1301 16.4675 29.1302 21.5327 26.0061 24.657V24.657Z" stroke="#4B465C" stroke-width="1.75" stroke-linecap="round" stroke-linejoin="round"/>
<path fill-rule="evenodd" clip-rule="evenodd" d="M26.0061 24.657L21.7631 28.9C20.9822 29.68 19.717 29.68 18.9361 28.9L14.6921 24.657C11.568 21.5327 11.5681 16.4675 14.6923 13.3433C17.8165 10.2192 22.8817 10.2192 26.0059 13.3433C29.1301 16.4675 29.1302 21.5327 26.0061 24.657V24.657Z" stroke="white" stroke-opacity="0.2" stroke-width="1.75" stroke-linecap="round" stroke-linejoin="round"/>
</svg>
